PathFileType	4	(X/Y/Z)	 2.2Hzhigh3min.trc
DataRate	CameraRate	NumFrames	NumMarkers	Units	OrigDataRate	OrigDataStartFrame	OrigNumFrames
200	200	7	39	m	200	1	1000
Frame#	Time	C7			LSH			RSH			MAN			RASI			LASI			HIPR			HIPL			RPSI			LPSI			COX			RTHI1			RTHI2			RTHI3			RTHI4			RLKN			RMKN			RSHA1			RSHA2			RSHA3			RSHA4			RHEEL			RMET5			RMET1			RTOE			LTHI1			LTHI2			LTHI3			LTHI4			LLKN			LMKN			LSHA1			LSHA2			LSHA3			LSHA4			LHEEL			LMET5			LMET1			LTOE			
		X1	Y1	Z1	X2	Y2	Z2	X3	Y3	Z3	X4	Y4	Z4	X5	Y5	Z5	X6	Y6	Z6	X7	Y7	Z7	X8	Y8	Z8	X9	Y9	Z9	X10	Y10	Z10	X11	Y11	Z11	X12	Y12	Z12	X13	Y13	Z13	X14	Y14	Z14	X15	Y15	Z15	X16	Y16	Z16	X17	Y17	Z17	X18	Y18	Z18	X19	Y19	Z19	X20	Y20	Z20	X21	Y21	Z21	X22	Y22	Z22	X23	Y23	Z23	X24	Y24	Z24	X25	Y25	Z25	X26	Y26	Z26	X27	Y27	Z27	X28	Y28	Z28	X29	Y29	Z29	X30	Y30	Z30	X31	Y31	Z31	X32	Y32	Z32	X33	Y33	Z33	X34	Y34	Z34	X35	Y35	Z35	X36	Y36	Z36	X37	Y37	Z37	X38	Y38	Z38	X39	Y39	Z39	
1	0.0050	-0.305048	1.438418	-0.506829	-0.271228	1.420511	-0.696195	-0.269008	1.425438	-0.327516	-0.147566	1.395472	-0.517491	-0.176143	0.915598	-0.401981	-0.181350	0.918365	-0.637527	-0.254744	0.989236	-0.347442	-0.248769	1.001097	-0.678333	-0.355387	0.981719	-0.479481	-0.354461	0.986133	-0.555732	-0.355445	0.981348	-0.516392	-0.267105	0.749339	-0.316101	-0.248209	0.694886	-0.305129	-0.186636	0.715620	-0.298493	-0.199459	0.774481	-0.310777	-0.201075	0.428822	-0.317341	-0.158310	0.419903	-0.432700	-0.294509	0.298180	-0.318625	-0.321235	0.266688	-0.332320	-0.270422	0.233281	-0.333517	-0.247611	0.265831	-0.324812	-0.428361	0.089299	-0.428664	-0.286626	0.034351	-0.327946	-0.225207	0.047571	-0.391130	-0.196304	0.036664	-0.382497	-0.283976	0.719666	-0.708324	-0.254878	0.666045	-0.718941	-0.199370	0.693610	-0.737066	-0.220367	0.750150	-0.729025	-0.196825	0.441195	-0.714494	-0.164697	0.429073	-0.595315	-0.339104	0.268919	-0.696234	-0.362364	0.237806	-0.684512	-0.309665	0.204236	-0.692408	-0.292401	0.242960	-0.704128	-0.460272	0.094586	-0.604798	-0.312058	0.037619	-0.700434	-0.256464	0.049873	-0.634107	-0.227051	0.036888	-0.644524	
2	0.0100	-0.305094	1.439981	-0.506873	-0.271395	1.422699	-0.696360	-0.268959	1.427270	-0.327599	-0.147598	1.397255	-0.517647	-0.175353	0.917254	-0.402423	-0.180906	0.919788	-0.637590	-0.253107	0.991165	-0.347543	-0.247709	1.002967	-0.678776	-0.354776	0.983151	-0.479423	-0.353908	0.987467	-0.555823	-0.354844	0.982766	-0.516430	-0.266760	0.751001	-0.316180	-0.248130	0.696372	-0.305282	-0.186488	0.716769	-0.298876	-0.199011	0.775469	-0.310970	-0.202089	0.430076	-0.317578	-0.160188	0.421332	-0.433321	-0.295209	0.299058	-0.318601	-0.321848	0.267455	-0.331998	-0.270929	0.234203	-0.333467	-0.248244	0.266784	-0.324772	-0.428436	0.089743	-0.428182	-0.286564	0.034305	-0.327759	-0.225288	0.047569	-0.391098	-0.196404	0.036599	-0.382513	-0.284025	0.720969	-0.708150	-0.255195	0.667213	-0.718670	-0.199617	0.694294	-0.736888	-0.220392	0.750880	-0.728931	-0.198375	0.442197	-0.714047	-0.166120	0.429718	-0.594939	-0.339789	0.268998	-0.695862	-0.362985	0.237824	-0.684289	-0.310228	0.204662	-0.692207	-0.293103	0.243426	-0.703906	-0.460382	0.094397	-0.604765	-0.312097	0.037619	-0.700429	-0.256518	0.049867	-0.634073	-0.227090	0.036886	-0.644544	
3	0.0150	-0.305144	1.442095	-0.506876	-0.271607	1.425393	-0.696414	-0.268981	1.429676	-0.327688	-0.147587	1.399683	-0.517748	-0.174422	0.919559	-0.402826	-0.180187	0.922037	-0.637836	-0.251419	0.993493	-0.347694	-0.246643	1.005231	-0.679182	-0.353979	0.985234	-0.479385	-0.353208	0.989437	-0.555920	-0.354126	0.984797	-0.516488	-0.266350	0.753316	-0.316317	-0.248010	0.698485	-0.305515	-0.186288	0.718513	-0.299365	-0.198448	0.777156	-0.311244	-0.203425	0.431805	-0.317913	-0.162389	0.423135	-0.434051	-0.296108	0.300289	-0.318551	-0.322647	0.268487	-0.331797	-0.271562	0.235572	-0.333419	-0.249028	0.268164	-0.324776	-0.428441	0.090422	-0.427616	-0.286462	0.034251	-0.327555	-0.225369	0.047561	-0.391065	-0.196504	0.036552	-0.382570	-0.284031	0.722929	-0.707982	-0.255470	0.669024	-0.718424	-0.199728	0.695729	-0.736789	-0.220252	0.752387	-0.728991	-0.200127	0.443784	-0.713594	-0.168036	0.430966	-0.594461	-0.340722	0.269575	-0.695833	-0.363760	0.238210	-0.684259	-0.310829	0.205454	-0.692111	-0.293874	0.244313	-0.703790	-0.460408	0.094550	-0.605003	-0.312073	0.037628	-0.700474	-0.256564	0.049866	-0.634060	-0.227138	0.036894	-0.644554	
4	0.0200	-0.305225	1.444371	-0.506881	-0.271839	1.428240	-0.696459	-0.269036	1.432232	-0.327789	-0.147613	1.402277	-0.517850	-0.173457	0.922040	-0.403214	-0.179434	0.924464	-0.638092	-0.249753	0.995984	-0.347868	-0.245585	1.007609	-0.679549	-0.353148	0.987468	-0.479358	-0.352461	0.991554	-0.556022	-0.353359	0.986962	-0.516544	-0.265922	0.755787	-0.316477	-0.247884	0.700756	-0.305763	-0.186071	0.720403	-0.299875	-0.197887	0.779090	-0.311603	-0.204868	0.433674	-0.318311	-0.164655	0.425042	-0.434803	-0.297062	0.301643	-0.318530	-0.323495	0.269643	-0.331599	-0.272236	0.237054	-0.333363	-0.249865	0.269675	-0.324791	-0.428432	0.091178	-0.427005	-0.286349	0.034199	-0.327353	-0.225441	0.047554	-0.391034	-0.196600	0.036509	-0.382631	-0.284021	0.725069	-0.707821	-0.255737	0.671008	-0.718186	-0.199848	0.697355	-0.736611	-0.220093	0.754082	-0.728922	-0.201919	0.445505	-0.713136	-0.170040	0.432382	-0.593969	-0.341655	0.270250	-0.695765	-0.364560	0.238775	-0.684223	-0.311443	0.206372	-0.692046	-0.294669	0.245326	-0.703697	-0.460402	0.094808	-0.605286	-0.312035	0.037641	-0.700523	-0.256604	0.049863	-0.634050	-0.227185	0.036903	-0.644558	
5	0.0250	-0.305354	1.447113	-0.506871	-0.272120	1.431526	-0.696439	-0.269149	1.435258	-0.327873	-0.147752	1.405374	-0.517948	-0.172386	0.925047	-0.403562	-0.178516	0.927492	-0.638437	-0.248099	0.998895	-0.348093	-0.244540	1.010344	-0.679844	-0.352188	0.990197	-0.479360	-0.351585	0.994158	-0.556133	-0.352475	0.989583	-0.516612	-0.265445	0.758752	-0.316687	-0.247731	0.703521	-0.306069	-0.185808	0.722752	-0.300456	-0.197274	0.781523	-0.312062	-0.206574	0.435944	-0.318817	-0.167150	0.427266	-0.435632	-0.298185	0.303322	-0.318529	-0.324491	0.271074	-0.331476	-0.273025	0.238880	-0.333293	-0.250839	0.271553	-0.324828	-0.428368	0.092155	-0.426303	-0.286204	0.034149	-0.327149	-0.225500	0.047544	-0.391002	-0.196685	0.036473	-0.382724	-0.283967	0.727740	-0.707676	-0.255973	0.673510	-0.717972	-0.199909	0.699509	-0.736411	-0.219852	0.756335	-0.728836	-0.203858	0.447675	-0.712672	-0.172362	0.434301	-0.593413	-0.342696	0.271276	-0.695819	-0.365433	0.239654	-0.684256	-0.312090	0.207631	-0.692071	-0.295524	0.246706	-0.703688	-0.460310	0.095364	-0.605750	-0.311947	0.037664	-0.700602	-0.256629	0.049860	-0.634054	-0.227233	0.036918	-0.644553	
6	0.0300	-0.305571	1.450308	-0.506870	-0.272455	1.435218	-0.696389	-0.269299	1.438694	-0.327966	-0.147991	1.408929	-0.518040	-0.171227	0.928533	-0.403869	-0.177498	0.930989	-0.638801	-0.246499	1.002267	-0.348368	-0.243513	1.013426	-0.680038	-0.351137	0.993327	-0.479397	-0.350630	0.997182	-0.556227	-0.351520	0.992614	-0.516700	-0.264923	0.762139	-0.316945	-0.247565	0.706727	-0.306419	-0.185501	0.725521	-0.301095	-0.196581	0.784458	-0.312618	-0.208556	0.438597	-0.319470	-0.169818	0.429789	-0.436518	-0.299454	0.305343	-0.318601	-0.325609	0.272864	-0.331333	-0.273935	0.241007	-0.333190	-0.251947	0.273791	-0.324894	-0.428251	0.093351	-0.425499	-0.286025	0.034116	-0.326958	-0.225532	0.047541	-0.390972	-0.196749	0.036452	-0.382839	-0.283871	0.730886	-0.707551	-0.256184	0.676477	-0.717785	-0.199921	0.702182	-0.736198	-0.219510	0.759100	-0.728723	-0.205908	0.450219	-0.712206	-0.174895	0.436693	-0.592827	-0.343802	0.272700	-0.695941	-0.366321	0.240909	-0.684381	-0.312767	0.209233	-0.692178	-0.296433	0.248429	-0.703746	-0.460110	0.096222	-0.606341	-0.311818	0.037701	-0.700690	-0.256636	0.049855	-0.634064	-0.227279	0.036936	-0.644534	
7	0.0350	-0.305870	1.453949	-0.506868	-0.272850	1.439351	-0.696300	-0.269512	1.442580	-0.328070	-0.148353	1.412976	-0.518134	-0.169976	0.932532	-0.404125	-0.176372	0.934992	-0.639190	-0.244961	1.006170	-0.348688	-0.242526	1.016972	-0.680142	-0.349990	0.996900	-0.479474	-0.349558	1.000661	-0.556330	-0.350458	0.996068	-0.516805	-0.264359	0.765985	-0.317246	-0.247387	0.710394	-0.306812	-0.185164	0.728730	-0.301791	-0.195840	0.787822	-0.313243	-0.210804	0.441666	-0.320249	-0.172661	0.432659	-0.437461	-0.300892	0.307716	-0.318734	-0.326858	0.275008	-0.331248	-0.274972	0.243502	-0.333073	-0.253200	0.276424	-0.324976	-0.428062	0.094812	-0.424596	-0.285810	0.034102	-0.326784	-0.225533	0.047538	-0.390944	-0.196793	0.036440	-0.382972	-0.283727	0.734553	-0.707461	-0.256367	0.679951	-0.717635	-0.199893	0.705327	-0.735911	-0.219122	0.762369	-0.728489	-0.208076	0.453196	-0.711739	-0.177626	0.439604	-0.592212	-0.344938	0.274499	-0.696054	-0.367240	0.242527	-0.684523	-0.313474	0.211226	-0.692374	-0.297404	0.250557	-0.703874	-0.459782	0.097418	-0.607054	-0.311639	0.037759	-0.700792	-0.256618	0.049847	-0.634083	-0.227321	0.036952	-0.644500	
